<svg width="33" height="32" viewBox="0 0 33 32" fill="none" xmlns="http://www.w3.org/2000/svg">
<mask id="mask0_304_1267" style="mask-type:alpha" maskUnits="userSpaceOnUse" x="0" y="2" width="33" height="28">
<path d="M11.9625 11.6216C11.9625 13.4625 10.5299 14.9548 8.76265 14.9548C6.99541 14.9548 5.56278 13.4625 5.56278 11.6216C5.56278 9.78076 6.99541 8.28843 8.76265 8.28843C10.5299 8.28843 11.9625 9.78076 11.9625 11.6216Z" fill="#B4DBFF"/>
<path fill-rule="evenodd" clip-rule="evenodd" d="M0.500732 6.00037C0.500732 4.1595 1.93337 2.66718 3.70061 2.66718H29.2996C31.0668 2.66718 32.4995 4.1595 32.4995 6.00037V25.9996C32.4995 27.8404 31.0669 29.3328 29.2996 29.3328H27.1874C27.1804 29.3328 27.1734 29.3328 27.1664 29.3328H4.42988C4.42386 29.3328 4.41783 29.3328 4.41181 29.3328H3.70061C1.93337 29.3328 0.500732 27.8404 0.500732 25.9996V6.00037ZM3.70061 5.16707H29.2996C29.7414 5.16707 30.0996 5.54016 30.0996 6.00037V16.3868L23.1474 9.33361L11.3198 21.3331L7.83568 17.7984L2.90064 22.8052V6.00037C2.90064 5.54015 3.2588 5.16707 3.70061 5.16707Z" fill="#B4DBFF"/>
</mask>
<g mask="url(#mask0_304_1267)">
<rect x="0.500488" y="-0.000305176" width="31.9987" height="31.9987" fill="#B4DBFF"/>
</g>
</svg>
