<svg width="13" height="12" viewBox="0 0 13 12" fill="none" xmlns="http://www.w3.org/2000/svg">
<mask id="mask0_304_872" style="mask-type:alpha" maskUnits="userSpaceOnUse" x="1" y="0" width="11" height="12">
<path d="M8.88644 0.00600526C8.86094 -0.0224947 7.9422 0.0172553 7.1427 0.885005C6.3432 1.75201 6.46619 2.74651 6.48419 2.77201C6.50219 2.79751 7.6242 2.83726 8.34045 1.82851C9.0567 0.819755 8.91194 0.0352553 8.88644 0.00600526ZM11.3719 8.80575C11.3359 8.73375 9.6282 7.88025 9.7872 6.23925C9.9462 4.59751 11.0434 4.14751 11.0607 4.09876C11.0779 4.05001 10.6129 3.50626 10.1202 3.23101C9.75841 3.03694 9.35799 2.92576 8.94795 2.90551C8.86695 2.90326 8.5857 2.83426 8.00745 2.99251C7.62645 3.09676 6.76769 3.43426 6.53144 3.44776C6.29444 3.46126 5.58944 3.05626 4.83119 2.94901C4.34594 2.85526 3.83144 3.04726 3.46319 3.19501C3.09569 3.34201 2.39669 3.76051 1.90769 4.87276C1.41869 5.98426 1.67444 7.74526 1.85744 8.29276C2.04044 8.83951 2.32619 9.73575 2.81219 10.3898C3.24419 11.1278 3.81719 11.64 4.05644 11.814C4.29569 11.988 4.97069 12.1035 5.43869 11.8643C5.81519 11.6333 6.49469 11.5005 6.76319 11.5103C7.03094 11.52 7.55894 11.6258 8.0997 11.9145C8.52795 12.0623 8.93294 12.0008 9.3387 11.8358C9.74445 11.67 10.3317 11.0415 11.0172 9.76725C11.2774 9.17475 11.3959 8.8545 11.3719 8.80575Z" fill="white"/>
<path d="M8.88644 0.00600526C8.86094 -0.0224947 7.9422 0.0172553 7.1427 0.885005C6.3432 1.75201 6.46619 2.74651 6.48419 2.77201C6.50219 2.79751 7.6242 2.83726 8.34045 1.82851C9.0567 0.819755 8.91194 0.0352553 8.88644 0.00600526ZM11.3719 8.80575C11.3359 8.73375 9.6282 7.88025 9.7872 6.23925C9.9462 4.59751 11.0434 4.14751 11.0607 4.09876C11.0779 4.05001 10.6129 3.50626 10.1202 3.23101C9.75841 3.03694 9.35799 2.92576 8.94795 2.90551C8.86695 2.90326 8.5857 2.83426 8.00745 2.99251C7.62645 3.09676 6.76769 3.43426 6.53144 3.44776C6.29444 3.46126 5.58944 3.05626 4.83119 2.94901C4.34594 2.85526 3.83144 3.04726 3.46319 3.19501C3.09569 3.34201 2.39669 3.76051 1.90769 4.87276C1.41869 5.98426 1.67444 7.74526 1.85744 8.29276C2.04044 8.83951 2.32619 9.73575 2.81219 10.3898C3.24419 11.1278 3.81719 11.64 4.05644 11.814C4.29569 11.988 4.97069 12.1035 5.43869 11.8643C5.81519 11.6333 6.49469 11.5005 6.76319 11.5103C7.03094 11.52 7.55894 11.6258 8.0997 11.9145C8.52795 12.0623 8.93294 12.0008 9.3387 11.8358C9.74445 11.67 10.3317 11.0415 11.0172 9.76725C11.2774 9.17475 11.3959 8.8545 11.3719 8.80575Z" fill="white"/>
</mask>
<g mask="url(#mask0_304_872)">
<rect x="0.500977" width="12" height="12" fill="white"/>
</g>
</svg>
