<svg width="18" height="12" viewBox="0 0 18 12" fill="none" xmlns="http://www.w3.org/2000/svg">
<path fill-rule="evenodd" clip-rule="evenodd" d="M14.623 1.56587C14.6 1.68179 14.6 1.82118 14.6 2.09997V9.79998C14.6 10.0788 14.6 10.2182 14.623 10.3341C14.7177 10.8101 15.0899 11.1822 15.5659 11.2769C15.6818 11.3 15.8212 11.3 16.1 11.3C16.3788 11.3 16.5182 11.3 16.6341 11.2769C17.1101 11.1822 17.4822 10.8101 17.5769 10.3341C17.6 10.2182 17.6 10.0788 17.6 9.79998V2.09998C17.6 1.82118 17.6 1.68179 17.5769 1.56587C17.4822 1.08984 17.1101 0.717721 16.6341 0.623033C16.5182 0.599976 16.3788 0.599976 16.1 0.599976C15.8212 0.599976 15.6818 0.599976 15.5659 0.623033C15.0899 0.717721 14.7177 1.08984 14.623 1.56587ZM9.89999 4.49998C9.89999 4.22118 9.89999 4.08179 9.92305 3.96587C10.0177 3.48984 10.3899 3.11772 10.8659 3.02303C10.9818 2.99998 11.1212 2.99998 11.4 2.99998C11.6788 2.99998 11.8182 2.99998 11.9341 3.02303C12.4101 3.11772 12.7822 3.48984 12.8769 3.96587C12.9 4.08179 12.9 4.22118 12.9 4.49998V9.79998C12.9 10.0788 12.9 10.2182 12.8769 10.3341C12.7822 10.8101 12.4101 11.1822 11.9341 11.2769C11.8182 11.3 11.6788 11.3 11.4 11.3C11.1212 11.3 10.9818 11.3 10.8659 11.2769C10.3899 11.1822 10.0177 10.8101 9.92305 10.3341C9.89999 10.2182 9.89999 10.0788 9.89999 9.79998V4.49998ZM5.32305 6.26587C5.29999 6.38179 5.29999 6.52119 5.29999 6.79998V9.79998C5.29999 10.0788 5.29999 10.2182 5.32305 10.3341C5.41773 10.8101 5.78985 11.1822 6.26588 11.2769C6.3818 11.3 6.52119 11.3 6.79999 11.3C7.07878 11.3 7.21818 11.3 7.3341 11.2769C7.81012 11.1822 8.18224 10.8101 8.27693 10.3341C8.29999 10.2182 8.29999 10.0788 8.29999 9.79998V6.79998C8.29999 6.52119 8.29999 6.38179 8.27693 6.26587C8.18224 5.78984 7.81012 5.41773 7.3341 5.32304C7.21818 5.29998 7.07878 5.29998 6.79999 5.29998C6.52119 5.29998 6.3818 5.29998 6.26588 5.32304C5.78985 5.41773 5.41773 5.78984 5.32305 6.26587ZM0.523058 8.26587C0.5 8.38179 0.5 8.52119 0.5 8.79998V9.79998C0.5 10.0788 0.5 10.2182 0.523058 10.3341C0.617746 10.8101 0.989863 11.1822 1.46589 11.2769C1.58181 11.3 1.72121 11.3 2 11.3C2.27879 11.3 2.41819 11.3 2.53411 11.2769C3.01014 11.1822 3.38225 10.8101 3.47694 10.3341C3.5 10.2182 3.5 10.0788 3.5 9.79998V8.79998C3.5 8.52119 3.5 8.38179 3.47694 8.26587C3.38225 7.78984 3.01014 7.41773 2.53411 7.32304C2.41819 7.29998 2.27879 7.29998 2 7.29998C1.72121 7.29998 1.58181 7.29998 1.46589 7.32304C0.989863 7.41773 0.617746 7.78984 0.523058 8.26587Z" fill="#1F2024"/>
</svg>
