<svg width="13" height="12" viewBox="0 0 13 12" fill="none" xmlns="http://www.w3.org/2000/svg">
<mask id="mask0_304_570" style="mask-type:alpha" maskUnits="userSpaceOnUse" x="1" y="0" width="11" height="12">
<path d="M11.7835 4.96861C11.8522 5.3368 11.8897 5.72176 11.8897 6.12348C11.8897 9.2657 9.78665 11.5 6.61035 11.5C5.88802 11.5002 5.17272 11.3581 4.50533 11.0818C3.83794 10.8055 3.23154 10.4003 2.72077 9.88958C2.21001 9.37881 1.80489 8.77241 1.52857 8.10502C1.25224 7.43763 1.11013 6.72233 1.11035 6C1.11013 5.27767 1.25224 4.56237 1.52857 3.89498C1.80489 3.22759 2.21001 2.62119 2.72077 2.11042C3.23154 1.59966 3.83794 1.19454 4.50533 0.918214C5.17272 0.641891 5.88802 0.49978 6.61035 0.5C8.09542 0.5 9.33633 1.04642 10.2884 1.93367L8.73794 3.4841V3.48019C8.16079 2.93041 7.42831 2.64826 6.61035 2.64826C4.79564 2.64826 3.32063 4.18138 3.32063 5.99665C3.32063 7.81136 4.79564 9.34783 6.61035 9.34783C8.25689 9.34783 9.37767 8.40639 9.60786 7.11352H6.61035V4.96861H11.7841H11.7835Z" fill="white"/>
</mask>
<g mask="url(#mask0_304_570)">
<rect x="0.500977" width="12" height="12" fill="white"/>
</g>
</svg>
