<svg width="16" height="16" viewBox="0 0 16 16" fill="none" xmlns="http://www.w3.org/2000/svg">
<mask id="mask0_304_1025" style="mask-type:alpha" maskUnits="userSpaceOnUse" x="0" y="1" width="16" height="14">
<path fill-rule="evenodd" clip-rule="evenodd" d="M15.1463 2.5875C15.4717 2.26206 15.4717 1.73442 15.1463 1.40899C14.8208 1.08355 14.2932 1.08356 13.9678 1.409L1.96803 13.409C1.6426 13.7344 1.6426 14.2621 1.96804 14.5875C2.29348 14.9129 2.82112 14.9129 3.14655 14.5875L4.87278 12.8612C6.82003 13.6212 9.04857 13.6768 11.1491 12.8511C13.3673 11.9783 15.1273 10.2256 16 8.00016C15.4301 6.55944 14.4966 5.33013 13.3285 4.4053L15.1463 2.5875ZM11.2876 6.44624L10.1431 7.59081C10.1687 7.72479 10.1818 7.8618 10.1818 8.00016C10.1818 8.57881 9.95195 9.13377 9.54278 9.54294C9.13361 9.95211 8.57865 10.182 8 10.182C7.86166 10.182 7.72467 10.1688 7.5907 10.1433L6.44616 11.2878C6.92746 11.5153 7.45748 11.6365 8 11.6365C8.96442 11.6365 9.88935 11.2534 10.5713 10.5715C11.2532 9.88951 11.6364 8.96458 11.6364 8.00016C11.6364 7.45761 11.5151 6.92756 11.2876 6.44624ZM8 2.54561C8.92698 2.54561 9.82894 2.69568 10.6786 2.97614L9.11563 4.53916C8.75841 4.424 8.38231 4.3638 8 4.3638C7.03558 4.3638 6.11065 4.74691 5.4287 5.42886C4.74675 6.11081 4.36364 7.03574 4.36364 8.00016C4.36364 8.38249 4.42385 8.75862 4.53902 9.11587L2.33337 11.3216C1.33244 10.4461 0.520477 9.32422 0 8.00016C1.29455 4.72743 4.46545 2.54561 8 2.54561ZM6.45722 6.45738C6.82609 6.08851 7.31345 5.86536 7.82983 5.82498L5.82482 7.83004C5.86519 7.31363 6.08834 6.82626 6.45722 6.45738Z" fill="#006FFD"/>
</mask>
<g mask="url(#mask0_304_1025)">
<rect width="16" height="16" fill="#8F9098"/>
</g>
</svg>
